<svg width="686" height="40" viewBox="0 0 686 40" fill="none" xmlns="http://www.w3.org/2000/svg">
<rect x="605.5" y="0.5" width="80" height="39" rx="1.5" stroke="#181818"/>
<rect x="645" width="1" height="40" fill="#181818"/>
<rect x="671.867" y="12" width="3.01698" height="19.6104" rx="1.50849" transform="rotate(45 671.867 12)" fill="#181818"/>
<rect x="658" y="14.1332" width="3.01698" height="19.6104" rx="1.50849" transform="rotate(-45 658 14.1332)" fill="#181818"/>
<rect x="621" y="14" width="8" height="2" rx="1" fill="#181818"/>
<rect x="621" y="19" width="8" height="2" rx="1" fill="#181818"/>
<rect x="621" y="24" width="8" height="2" rx="1" fill="#181818"/>
<rect x="627" y="19" width="2" height="7" rx="1" fill="#181818"/>
<rect x="621" y="19" width="2" height="7" rx="1" fill="#181818"/>
<rect x="621" y="14" width="2" height="7" rx="1" fill="#181818"/>
<rect x="627" y="14" width="2" height="7" rx="1" fill="#181818"/>
<rect x="484.5" y="0.5" width="80" height="39" rx="1.5" stroke="#181818"/>
<rect x="524" width="1" height="40" fill="#181818"/>
<rect x="544" y="19" width="61" height="2" rx="1" fill="#181818"/>
<rect x="596" y="13.4142" width="2" height="11.3047" rx="1" transform="rotate(-45 596 13.4142)" fill="#181818"/>
<rect x="604" y="18.57" width="2.00229" height="11.6129" rx="1" transform="rotate(45 604 18.57)" fill="#181818"/>
<rect x="505" y="14" width="8" height="2" rx="1" fill="#181818"/>
<rect x="505" y="19" width="8" height="2" rx="1" fill="#181818"/>
<rect x="505" y="24" width="8" height="2" rx="1" fill="#181818"/>
<rect x="511" y="19" width="2" height="7" rx="1" fill="#181818"/>
<rect x="505" y="19" width="2" height="7" rx="1" fill="#181818"/>
<rect x="505" y="14" width="2" height="7" rx="1" fill="#181818"/>
<rect x="495" y="14" width="8" height="2" rx="1" fill="#181818"/>
<rect x="495" y="19" width="8" height="2" rx="1" fill="#181818"/>
<rect x="495" y="24" width="8" height="2" rx="1" fill="#181818"/>
<rect x="501" y="19" width="2" height="7" rx="1" fill="#181818"/>
<rect x="501" y="14" width="2" height="7" rx="1" fill="#181818"/>
<rect x="363.5" y="0.5" width="80" height="39" rx="1.5" stroke="#181818"/>
<rect x="403" width="1" height="40" fill="#181818"/>
<rect x="423" y="19" width="61" height="2" rx="1" fill="#181818"/>
<rect x="475" y="13.4142" width="2" height="11.3047" rx="1" transform="rotate(-45 475 13.4142)" fill="#181818"/>
<rect x="483" y="18.57" width="2.00229" height="11.6129" rx="1" transform="rotate(45 483 18.57)" fill="#181818"/>
<rect x="379" y="14" width="8" height="2" rx="1" fill="#181818"/>
<rect x="379" y="19" width="8" height="2" rx="1" fill="#181818"/>
<rect x="379" y="24" width="8" height="2" rx="1" fill="#181818"/>
<rect x="385" y="19" width="2" height="7" rx="1" fill="#181818"/>
<rect x="379" y="14" width="2" height="7" rx="1" fill="#181818"/>
<rect x="242.5" y="0.5" width="80" height="39" rx="1.5" stroke="#181818"/>
<rect x="282" width="1" height="40" fill="#181818"/>
<rect x="302" y="18" width="61" height="2" rx="1" fill="#181818"/>
<rect x="354" y="12.4142" width="2" height="11.3047" rx="1" transform="rotate(-45 354 12.4142)" fill="#181818"/>
<rect x="362" y="17.57" width="2.00229" height="11.6129" rx="1" transform="rotate(45 362 17.57)" fill="#181818"/>
<rect x="258" y="14" width="8" height="2" rx="1" fill="#181818"/>
<rect x="258" y="24" width="8" height="2" rx="1" fill="#181818"/>
<rect x="258" y="26" width="12" height="2" rx="1" transform="rotate(-90 258 26)" fill="#181818"/>
<rect x="264" y="26" width="12" height="2" rx="1" transform="rotate(-90 264 26)" fill="#181818"/>
<rect x="121.5" y="0.5" width="80" height="39" rx="1.5" stroke="#181818"/>
<rect x="161" width="1" height="40" fill="#181818"/>
<rect x="181" y="19" width="61" height="2" rx="1" fill="#181818"/>
<rect x="233" y="13.4142" width="2" height="11.3047" rx="1" transform="rotate(-45 233 13.4142)" fill="#181818"/>
<rect x="241" y="18.57" width="2.00229" height="11.6129" rx="1" transform="rotate(45 241 18.57)" fill="#181818"/>
<rect x="137.483" y="14.3394" width="2.19316" height="11.6607" rx="1" fill="#181818"/>
<rect width="7.85194" height="2.02074" rx="1" transform="matrix(0.866732 -0.498775 0.59111 0.806591 132 17.9164)" fill="#181818"/>
<rect x="142" y="14" width="8" height="2" rx="1" fill="#181818"/>
<rect x="142" y="19" width="8" height="2" rx="1" fill="#181818"/>
<rect x="142" y="24" width="8" height="2" rx="1" fill="#181818"/>
<rect x="142" y="19" width="2" height="7" rx="1" fill="#181818"/>
<rect x="148" y="14" width="2" height="7" rx="1" fill="#181818"/>
<rect x="0.5" y="0.5" width="80" height="39" rx="1.5" stroke="#181818"/>
<rect x="40" width="1" height="40" fill="#181818"/>
<rect x="60" y="19" width="61" height="2" rx="1" fill="#181818"/>
<rect x="112" y="13.4142" width="2" height="11.3047" rx="1" transform="rotate(-45 112 13.4142)" fill="#181818"/>
<rect x="120" y="18.57" width="2.00229" height="11.6129" rx="1" transform="rotate(45 120 18.57)" fill="#181818"/>
<rect x="21.1509" y="14.3963" width="1.89964" height="11.6037" rx="0.949819" fill="#181818"/>
<rect width="10.99" height="1.96555" rx="0.982777" transform="matrix(0.523108 -0.852267 0.843741 0.53675 16 23.3663)" fill="#181818"/>
<rect x="16.4019" y="22.1321" width="7.59855" height="1.93395" rx="0.966973" fill="#181818"/>
</svg>
